<svg xmlns="http://www.w3.org/2000/svg" viewBox="0 0 600 160" width="600" height="160">
  <defs>
    <linearGradient id="iconGrad" x1="0%" y1="0%" x2="100%" y2="100%">
      <stop offset="0%" style="stop-color:#0ace0a;stop-opacity:1" />
      <stop offset="100%" style="stop-color:#08a808;stop-opacity:1" />
    </linearGradient>
  </defs>
  <g transform="translate(20, 20)">
    <path d="M 55 0 L 95 0 C 115 0, 120 10, 120 25 L 120 95 C 120 110, 115 120, 95 120 L 55 120 C 35 120, 25 115, 15 100 L 0 75 L 0 45 L 15 20 C 25 5, 35 0, 55 0 Z" fill="#111111"/>
    <path d="M 55 28 L 85 28 C 90 28, 92 30, 92 35 L 92 85 C 92 90, 90 92, 85 92 L 55 92 C 48 92, 43 89, 38 80 L 30 67 L 30 53 L 38 40 C 43 31, 48 28, 55 28 Z" fill="white"/>
    <polygon points="50,72 50,48 38,60" fill="url(#iconGrad)"/>
    <rect x="50" y="48" width="28" height="24" rx="3" fill="url(#iconGrad)"/>
    <polygon points="78,40 98,60 78,80" fill="url(#iconGrad)"/>
  </g>
  <text x="160" y="72" font-family="Arial, Helvetica, sans-serif" font-weight="800" font-size="48" fill="#111111" letter-spacing="4">CHANNEL</text>
  <text x="160" y="122" font-family="Arial, Helvetica, sans-serif" font-weight="800" font-size="48" fill="#0ace0a" letter-spacing="4">CAREERS</text>
  <text x="162" y="148" font-family="Arial, Helvetica, sans-serif" font-weight="400" font-size="14" fill="#888888" letter-spacing="2">FIND YOUR CHANNEL</text>
</svg>
